<svg id="Grupo_3" data-name="Grupo 3" xmlns="http://www.w3.org/2000/svg" width="501.4" height="501.438" viewBox="0 0 501.4 501.438">
  <defs>
    <style>
      .cls-1 {
        fill: #87e64b;
      }

      .cls-1, .cls-2 {
        fill-rule: evenodd;
      }

      .cls-2 {
        fill: #183f00;
      }
    </style>
  </defs>
  <path id="Rectángulo_5" data-name="Rectángulo 5" class="cls-1" d="M11499.3,249.27h201.4a149.963,149.963,0,0,1,150,150V600.73a149.963,149.963,0,0,1-150,150h-201.4a149.963,149.963,0,0,1-150-150V399.27A149.963,149.963,0,0,1,11499.3,249.27Z" transform="translate(-11349.3 -249.281)"/>
  <path id="Forma_1" data-name="Forma 1" class="cls-2" d="M11740.5,520.912a16.341,16.341,0,0,0-5-2.092,41.051,41.051,0,0,1,6.3,3.011A8.657,8.657,0,0,0,11740.5,520.912Zm45.3-29.125c-12.6-8.966-31.1-13.457-55.3-13.457h-107.7c-7.1,0-12.3-1.03-15.8-3.107-3.4-2.076-5.2-5.656-5.2-10.789q0-7.572,5.1-10.552l-24.6-35.592a62.178,62.178,0,0,0-7.8-9.236,58.839,58.839,0,0,0-8.1-6.585c-6.2-4.238-13.9-6.365-23.2-6.365-9.6,0-17.6,2.279-23.9,6.8a68.294,68.294,0,0,0-15.7,15.382l-126.9,178.939h72.5L11542,465.9a15.826,15.826,0,0,1,1,1.385c2.6,3.919,10.4,15.753,20.5,31.026a37.442,37.442,0,0,0,20.1,15.173c0.1,0.016.1,0.031,0.2,0.047,9.3,2.752,20.3,4.136,33.1,4.136h107.7a44.743,44.743,0,0,1,10.9,1.15,16.341,16.341,0,0,1,5,2.092,8.657,8.657,0,0,1,1.3.919,41.4,41.4,0,0,1-7.7,74.886,125.356,125.356,0,0,0,24.3-3.929c10.8-2.955,19.6-7.192,26.5-12.714a48.586,48.586,0,0,0,15.1-20.413c3.2-8.087,4.7-17.154,4.7-27.2Q11804.7,505.234,11785.8,491.787Zm-44,30.044c2.5,2.228,3.8,5.569,3.8,10.039q0,7.674-5.1,11.076-4.95,3.418-15.9,3.411h-143a36.7,36.7,0,0,1,.7,50.872h137.5c5.1,0,9.8-.181,14.3-0.512A41.4,41.4,0,0,0,11741.8,521.831Zm-11.5-90.672a4.917,4.917,0,1,0,6.7,1.868A4.954,4.954,0,0,0,11730.3,431.159Zm-29.3-20.893a4.92,4.92,0,1,0,6.7,1.869A4.957,4.957,0,0,0,11701,410.266Zm116.3,8.947a11.387,11.387,0,0,0-15.5-4.3,11.864,11.864,0,0,0-4.6,4.874l-83.7.064a11.415,11.415,0,0,1-20,.315,0.558,0.558,0,0,0-.2-0.3,11.356,11.356,0,0,1,4.5-15.2,11.387,11.387,0,0,1,15.5,4.3c0.1,0.164.2,0.315,0.3,0.486l39.6-.05c0,0.086.1,0.151,0.1,0.236a11.388,11.388,0,0,0,20.3-10.27c-0.2-.315-0.3-0.623-0.5-0.931a11.379,11.379,0,0,0-15.5-4.294,11.233,11.233,0,0,0-4.6,4.881l-135.6.344c-14.5,0-27.1,1.417-37.7,4.208l33.6,47.254,161.8,0.279c0.1,0.086.1,0.164,0.2,0.25a11.363,11.363,0,0,0,15.5,4.3,11.524,11.524,0,0,0,4.3-15.5,11.4,11.4,0,0,0-15.5-4.3,10.7,10.7,0,0,0-4.6,4.867l-32.2-.014a11.4,11.4,0,0,1-20,.337c-0.1-.115-0.1-0.229-0.2-0.337a11.382,11.382,0,0,1,20-10.865c0.1,0.115.1,0.243,0.2,0.365l54.6-.05c0,0.086.1,0.165,0.1,0.251A11.375,11.375,0,0,0,11817.3,419.213Zm-34.6,22.253a4.9,4.9,0,0,1,6.7,1.861,4.836,4.836,0,0,1-1.8,6.72A4.941,4.941,0,0,1,11782.7,441.466Zm-17.9-42.1a4.833,4.833,0,0,1,2.7,2.247,4.819,4.819,0,1,1-5.9-2.247A5.088,5.088,0,0,1,11764.8,399.366Zm45.1,29.739a5.031,5.031,0,0,1-6.8-1.868,4.947,4.947,0,0,1,1.9-6.714A4.941,4.941,0,0,1,11809.9,429.105Z" transform="translate(-11349.3 -249.281)"/>
  <path id="Forma_1_copia" data-name="Forma 1 copia" class="cls-2" d="M11579.2,565.467a34.7,34.7,0,1,1-41.3-26.484A34.746,34.746,0,0,1,11579.2,565.467Z" transform="translate(-11349.3 -249.281)"/>
</svg>
