<svg xmlns="http://www.w3.org/2000/svg" width="522" height="655" viewBox="0 0 522 655">
  <defs>
    <style>
      .cls-1 {
        fill: #fff;
        fill-rule: evenodd;
      }
    </style>
  </defs>
  <path id="Forma_5" data-name="Forma 5" class="cls-1" d="M11600,828a27.378,27.378,0,0,1-19.7-8.33c-9.3-9.572-18.8-19.211-27.9-28.533C11442.6,679.3,11339,573.661,11339,440.5c0-71.306,27-138.383,76.2-188.875,49.3-50.7,114.9-78.625,184.8-78.625s135.5,27.923,184.8,78.625c49.1,50.492,76.2,117.569,76.2,188.875,0,133.162-103.6,238.8-213.4,350.64-9.1,9.321-18.6,18.959-27.9,28.53A27.548,27.548,0,0,1,11600,828Zm0-600c-113.6,0-206,95.327-206,212.5,0,110.7,96,208.542,197.7,312.132,2.7,2.81,5.5,5.65,8.3,8.509,2.8-2.858,5.6-5.7,8.3-8.506C11710,649.044,11806,551.2,11806,440.5,11806,323.327,11713.6,228,11600,228Zm0,300a94.167,94.167,0,1,1,94.2-94.166A94.253,94.253,0,0,1,11600,528Zm0-133.334a39.167,39.167,0,1,0,39.2,39.168A39.238,39.238,0,0,0,11600,394.666Z" transform="translate(-11339 -173)"/>
</svg>
