<?xml version="1.0" encoding="UTF-8"?>
<svg id="Capa_2" data-name="Capa 2" xmlns="http://www.w3.org/2000/svg" viewBox="0 0 1333.64 165.93">
  <defs>
    <style>
      .cls-1 {
        fill: #87e64b;
      }

      .cls-1, .cls-2 {
        fill-rule: evenodd;
      }

      .cls-2 {
        fill: #fff;
      }
    </style>
  </defs>
  <g id="Capa_1-2" data-name="Capa 1">
    <g>
      <path id="ARELYSHOP_copia" data-name="ARELYSHOP copia" class="cls-2" d="M456.17,138.27h28.89l-43.47-109.05h-27.34l-43.33,109.05h28.33l7.71-21.19h41.5l7.71,21.19ZM415.09,94.34l12.62-34.9,12.62,34.9h-25.24ZM562.02,138.27h29.72l-21.17-34.28c12.2-6.54,19.21-18.38,19.21-34.43,0-24.93-16.83-40.35-43.61-40.35h-44.87v109.06h27.77v-28.98h15.14l17.81,28.98ZM561.74,69.57c0,9.97-5.75,15.89-17.25,15.89h-15.42v-31.94h15.42c11.5,0,17.25,5.92,17.25,16.05h0ZM640.94,114.44v-19.95h43.61v-23.06h-43.61v-18.38h49.5v-23.84h-76.98v109.05h78.8v-23.84h-51.32ZM716.08,138.27h74.59v-24.46h-46.83V29.21h-27.76v109.05h0ZM890.21,29.22h-26.92l-23.27,43.31-23.28-43.31h-29.3l37.43,69.48v39.57h27.76v-39.1l37.58-69.96ZM939.13,139.52c25.94,0,38-14.33,38-31,0-40.04-59.45-23.37-59.45-50.01,0-9.5,7.15-17.29,23.83-17.29,9.68.12,19.08,3.22,26.93,8.88l4.62-12.46c-8.13-6.23-20.05-9.66-31.55-9.66-25.79,0-37.57,14.33-37.57,31.16,0,40.51,59.45,23.68,59.45,50.32,0,9.5-7.29,16.83-24.26,16.83-12.62,0-25.1-5.3-32.39-12.62l-5.19,12.15c7.86,8.09,22.58,13.7,37.58,13.7h0ZM1076.38,29.22v46.89h-56.36V29.21h-14.02v109.05h14.02v-48.61h56.36v48.61h14.03V29.21h-14.03ZM1172.55,139.52c29.87,0,52.02-23.68,52.02-55.77s-22.15-55.77-52.02-55.77-52.3,23.84-52.3,55.77,22.16,55.77,52.3,55.77h0ZM1172.55,125.65c-22.01,0-38.27-17.76-38.27-41.91s16.26-41.91,38.27-41.91,38,17.76,38,41.91-16.26,41.9-38,41.9h0ZM1292.7,29.22h-38.28v109.05h14.02v-33.03h24.26c25.52,0,40.94-14.33,40.94-38.01s-15.42-38.01-40.94-38.01h0ZM1292.28,91.69h-23.84v-48.92h23.84c17.95,0,27.34,8.88,27.34,24.46s-9.39,24.46-27.34,24.46h0Z"/>
      <path id="Forma_1" data-name="Forma 1" class="cls-2" d="M280.85,99c-1.21-.74-2.54-1.29-3.92-1.61,1.68.64,3.31,1.41,4.86,2.32-.29-.26-.61-.5-.94-.71ZM315.8,76.51c-9.75-6.92-23.98-10.38-42.7-10.39h-83.11c-5.48,0-9.55-.8-12.21-2.4-2.67-1.6-4-4.37-4-8.33s1.29-6.61,3.87-8.15l-18.98-27.47c-1.75-2.57-3.76-4.96-6-7.13-1.91-1.88-3.99-3.58-6.21-5.08-4.79-3.27-10.76-4.91-17.92-4.91-7.46,0-13.62,1.75-18.49,5.25-4.65,3.28-8.73,7.29-12.1,11.87L0,157.9h55.94L127.63,56.53s.25.36.71,1.07c2,3.02,8.07,12.16,15.86,23.95,3.65,5.6,9.15,9.74,15.53,11.71l.12.04c7.15,2.13,15.67,3.19,25.57,3.19h83.12c2.82-.05,5.64.24,8.39.89,1.38.33,2.71.87,3.92,1.61.33.21.65.45.94.71,15.22,8.9,20.34,28.46,11.44,43.68-3.89,6.64-10.04,11.66-17.33,14.13,6.34-.4,12.63-1.42,18.77-3.03,8.3-2.28,15.11-5.55,20.44-9.81,5.22-4.12,9.24-9.56,11.64-15.76,2.52-6.71,3.76-13.83,3.66-21,0-14.01-4.87-24.47-14.61-31.39h0ZM281.79,99.7c1.97,1.72,2.95,4.3,2.95,7.75,0,3.95-1.3,6.8-3.89,8.55-2.58,1.76-6.7,2.63-12.31,2.63h-110.39c10.66,10.83,10.91,28.13.57,39.27h106.15c3.87,0,7.53-.14,11.03-.4,16.7-5.65,25.67-23.77,20.02-40.47-2.47-7.29-7.48-13.45-14.13-17.33h0ZM272.92,29.71c-1.83,1.04-2.47,3.36-1.44,5.19,1.04,1.83,3.36,2.47,5.19,1.44,1.83-1.03,2.47-3.35,1.44-5.18-1.04-1.83-3.36-2.47-5.19-1.44h0ZM250.3,13.59c-1.83,1.03-2.48,3.36-1.45,5.19s3.36,2.48,5.19,1.45c1.83-1.03,2.48-3.36,1.45-5.19,0,0,0,0,0,0-1.04-1.83-3.36-2.48-5.19-1.44h0ZM340.12,20.49c-2.38-4.22-7.72-5.71-11.94-3.34-1.54.87-2.79,2.19-3.57,3.78l-64.66.05c-2.26,4.29-7.56,5.94-11.85,3.69-1.49-.78-2.73-1.98-3.56-3.44-.04-.08-.09-.15-.13-.23-2.26-4.29-.62-9.6,3.67-11.86,4.2-2.21,9.4-.69,11.74,3.45.07.13.13.24.2.38l30.59-.04c.03.06.06.12.1.18,2.39,4.22,7.75,5.7,11.96,3.31,3.94-2.23,5.54-7.1,3.68-11.24-.11-.25-.23-.49-.36-.72-2.39-4.22-7.75-5.7-11.97-3.32-1.53.87-2.77,2.18-3.54,3.77l-104.66.27c-11.26,0-20.96,1.08-29.1,3.25l25.94,36.48,124.88.21c.03.07.07.13.1.19,2.38,4.22,7.73,5.7,11.95,3.32,4.22-2.38,5.7-7.74,3.32-11.95-2.38-4.22-7.74-5.7-11.95-3.32-1.53.87-2.77,2.17-3.55,3.75h-24.84c-2.24,4.28-7.53,5.95-11.83,3.71-1.5-.78-2.75-1.99-3.58-3.46-.05-.09-.1-.18-.15-.26-1.32-2.54-1.32-5.56,0-8.09.77-1.52,1.98-2.77,3.46-3.61,4.22-2.38,9.57-.9,11.97,3.32.05.09.1.19.15.28l42.14-.04c.04.06.07.13.1.19,2.39,4.22,7.75,5.71,11.97,3.32,4.22-2.39,5.71-7.75,3.32-11.97h0ZM313.41,37.67c1.83-1.03,4.15-.39,5.19,1.44s.39,4.15-1.44,5.19c-1.83,1.03-4.15.39-5.19-1.44-1.03-1.83-.39-4.15,1.44-5.19ZM299.56,5.17c1.99.67,3.06,2.82,2.39,4.81-.67,1.99-2.82,3.06-4.81,2.39-1.99-.67-3.06-2.82-2.39-4.81.3-.89.92-1.64,1.73-2.1.21-.12.43-.22.66-.29.79-.26,1.64-.26,2.42,0h0ZM334.35,28.12c-1.83,1.03-4.15.39-5.19-1.44-1.03-1.83-.39-4.15,1.44-5.19,1.83-1.03,4.15-.39,5.19,1.44,1.04,1.83.39,4.15-1.44,5.19h0Z"/>
      <path id="Forma_1_copia" data-name="Forma 1 copia" class="cls-1" d="M156.3,133.39c3.17,14.46-5.98,28.75-20.44,31.91-14.46,3.17-28.75-5.98-31.92-20.44s5.98-28.75,20.44-31.91c0,0,0,0,0,0,14.46-3.16,28.74,5.99,31.91,20.44Z"/>
    </g>
  </g>
</svg>