<svg id="Grupo_3" data-name="Grupo 3" xmlns="http://www.w3.org/2000/svg" width="433.44" height="210.719" viewBox="0 0 433.44 210.719">
  <defs>
    <style>
      .cls-1 {
        fill: #fff;
      }

      .cls-1, .cls-2 {
        fill-rule: evenodd;
      }

      .cls-2 {
        fill: #0f9;
      }
    </style>
  </defs>
  <path id="Forma_1" data-name="Forma 1" class="cls-1" d="M7239.75,520.508a17.053,17.053,0,0,0-4.98-2.051,40.378,40.378,0,0,1,6.17,2.952A9.983,9.983,0,0,0,7239.75,520.508Zm44.39-28.555q-18.585-13.185-54.24-13.194H7124.35q-10.455,0-15.51-3.046c-3.39-2.036-5.08-5.545-5.08-10.577q0-7.425,4.91-10.347l-24.1-34.895a58.592,58.592,0,0,0-7.63-9.055,57.187,57.187,0,0,0-7.88-6.456q-9.135-6.232-22.76-6.241-14.205,0-23.5,6.671a67.337,67.337,0,0,0-15.36,15.081L6883.03,595.331h71.06l91.05-128.755,0.91,1.357c2.53,3.843,10.24,15.445,20.13,30.419a36.383,36.383,0,0,0,19.73,14.877l0.15,0.045q13.635,4.047,32.48,4.056h105.57a43.272,43.272,0,0,1,10.66,1.127,17.053,17.053,0,0,1,4.98,2.051,9.983,9.983,0,0,1,1.19.9,40.549,40.549,0,0,1-7.47,73.421,124.426,124.426,0,0,0,23.83-3.852q15.825-4.345,25.96-12.465a47.151,47.151,0,0,0,14.78-20.014,72.723,72.723,0,0,0,4.65-26.668Q7302.69,505.137,7284.14,491.953Zm-43.2,29.456q3.75,3.276,3.75,9.843,0,7.523-4.94,10.859c-3.27,2.235-8.51,3.344-15.64,3.344h-140.2a36.109,36.109,0,0,1,.72,49.876h134.83c4.91,0,9.56-.177,14.01-0.5A40.549,40.549,0,0,0,7240.94,521.409Zm-11.26-88.9a4.834,4.834,0,1,0,6.58,1.832A4.844,4.844,0,0,0,7229.68,432.511Zm-28.73-20.484a4.839,4.839,0,1,0,6.59,1.832A4.845,4.845,0,0,0,7200.95,412.027Zm114.07,8.772a11.13,11.13,0,0,0-19.69.562l-82.13.063a11.04,11.04,0,0,1-4.38,4.519,11.162,11.162,0,0,1-15.19-4.211c-0.05-.1-0.11-0.189-0.16-0.294a11.15,11.15,0,0,1,19.57-10.688c0.09,0.162.16,0.309,0.26,0.477l38.85-.049a1.251,1.251,0,0,0,.12.232,11.149,11.149,0,0,0,19.87-10.07,8.852,8.852,0,0,0-.46-0.912,11.163,11.163,0,0,0-15.2-4.211,10.986,10.986,0,0,0-4.5,4.786l-132.93.337q-21.45,0-36.96,4.126l32.94,46.329,158.62,0.274c0.04,0.084.09,0.161,0.13,0.245a11.152,11.152,0,1,0-.29-10.421l-31.56-.014a11.043,11.043,0,0,1-4.38,4.541,11.158,11.158,0,0,1-15.19-4.211c-0.07-.112-0.13-0.224-0.19-0.33a11.112,11.112,0,0,1,0-10.28,10.977,10.977,0,0,1,4.4-4.582,11.174,11.174,0,0,1,15.2,4.21c0.06,0.112.13,0.239,0.19,0.358l53.53-.049c0.04,0.084.08,0.161,0.12,0.245A11.151,11.151,0,0,0,7315.02,420.8Zm-33.91,21.817a4.834,4.834,0,1,1-1.83,6.59A4.831,4.831,0,0,1,7281.11,442.616Zm-17.6-41.276a4.831,4.831,0,1,1-3.91.372,4.925,4.925,0,0,1,.83-0.372A4.818,4.818,0,0,1,7263.51,401.34ZM7307.7,430.5a4.834,4.834,0,1,1,1.83-6.589A4.838,4.838,0,0,1,7307.7,430.5Z" transform="translate(-6883.03 -394.781)"/>
  <path id="Forma_1_copia" data-name="Forma 1 copia" class="cls-2" d="M7081.55,564.191a34.038,34.038,0,1,1-40.53-25.966A34.039,34.039,0,0,1,7081.55,564.191Z" transform="translate(-6883.03 -394.781)"/>
</svg>
