<svg id="Grupo_3" data-name="Grupo 3" xmlns="http://www.w3.org/2000/svg" width="1333.62" height="165.938" viewBox="0 0 1333.62 165.938">
  <defs>
    <style>
      .cls-1 {
        fill: #fff;
      }

      .cls-1, .cls-2 {
        fill-rule: evenodd;
      }

      .cls-2 {
        fill: #0f9;
      }
    </style>
  </defs>
  <path id="ARELYSHOP_copia" data-name="ARELYSHOP copia" class="cls-1" d="M8229.13,555.092h28.89l-43.47-109.055h-27.34l-43.33,109.055h28.33l7.71-21.188h41.5Zm-41.08-43.934,12.62-34.9,12.62,34.9h-25.24Zm146.93,43.934h29.72l-21.17-34.275c12.2-6.543,19.21-18.383,19.21-34.43,0-24.927-16.83-40.35-43.61-40.35h-44.87V555.092h27.77V526.114h15.14Zm-0.28-68.7c0,9.971-5.75,15.891-17.25,15.891h-15.42V470.34h15.42C8328.95,470.34,8334.7,476.261,8334.7,486.387Zm79.2,44.868V511.314h43.61V488.257H8413.9V469.873h49.5V446.037h-76.98V555.092h78.8V531.255H8413.9Zm75.14,23.837h74.59v-24.46H8516.8V446.037h-27.76V555.092Zm174.13-109.055h-26.92l-23.27,43.31-23.28-43.31h-29.3l37.43,69.483v39.572h27.76v-39.1Zm48.92,110.3c25.94,0,38-14.333,38-31,0-40.038-59.45-23.369-59.45-50.009,0-9.5,7.15-17.293,23.83-17.293a47.092,47.092,0,0,1,26.93,8.88l4.62-12.463c-8.13-6.232-20.05-9.66-31.55-9.66-25.79,0-37.57,14.333-37.57,31.159,0,40.506,59.45,23.68,59.45,50.321,0,9.5-7.29,16.826-24.26,16.826-12.62,0-25.1-5.3-32.39-12.62l-5.19,12.152C8682.37,550.729,8697.09,556.338,8712.09,556.338Zm137.25-110.3V492.93h-56.36V446.037h-14.02V555.092h14.02V506.484h56.36v48.608h14.03V446.037h-14.03Zm96.17,110.3c29.87,0,52.02-23.681,52.02-55.774s-22.15-55.774-52.02-55.774c-30.14,0-52.3,23.837-52.3,55.774S8915.37,556.338,8945.51,556.338Zm0-13.866c-22.01,0-38.27-17.76-38.27-41.908s16.26-41.908,38.27-41.908c21.74,0,38,17.76,38,41.908S8967.25,542.472,8945.51,542.472Zm120.15-96.435h-38.28V555.092h14.02V522.064h24.26c25.52,0,40.94-14.333,40.94-38.014S9091.18,446.037,9065.66,446.037Zm-0.42,62.473H9041.4V459.591h23.84c17.95,0,27.34,8.88,27.34,24.459S9083.19,508.51,9065.24,508.51Z" transform="translate(-7772.97 -416.812)"/>
  <path id="Forma_1" data-name="Forma 1" class="cls-1" d="M8053.81,515.817a13.475,13.475,0,0,0-3.92-1.615,31.806,31.806,0,0,1,4.86,2.324A7.757,7.757,0,0,0,8053.81,515.817Zm34.95-22.482q-14.625-10.382-42.7-10.388h-83.11q-8.22,0-12.21-2.4c-2.67-1.6-4-4.366-4-8.328q0-5.846,3.87-8.146L7931.63,436.6a45.929,45.929,0,0,0-6-7.129,44.925,44.925,0,0,0-6.21-5.083q-7.185-4.907-17.92-4.913-11.19,0-18.49,5.252a52.788,52.788,0,0,0-12.1,11.873l-97.95,138.126h55.94l71.69-101.372s0.25,0.365.71,1.069c2,3.025,8.07,12.16,15.86,23.949a28.63,28.63,0,0,0,15.53,11.713l0.12,0.035q10.725,3.188,25.57,3.194h83.12a34,34,0,0,1,8.39.887,13.475,13.475,0,0,1,3.92,1.615,7.757,7.757,0,0,1,.94.709,31.928,31.928,0,0,1-5.89,57.806,97.956,97.956,0,0,0,18.77-3.033q12.45-3.421,20.44-9.814a37.189,37.189,0,0,0,11.64-15.757,57.481,57.481,0,0,0,3.66-21Q8103.37,503.716,8088.76,493.335Zm-34.01,23.191q2.955,2.58,2.95,7.75,0,5.924-3.89,8.549c-2.58,1.76-6.7,2.633-12.31,2.633H7931.11a28.425,28.425,0,0,1,.57,39.269h106.15c3.87,0,7.53-.14,11.03-0.395A31.928,31.928,0,0,0,8054.75,516.526Zm-8.87-69.991a3.806,3.806,0,1,0,5.19,1.442A3.82,3.82,0,0,0,8045.88,446.535Zm-22.62-16.127a3.811,3.811,0,1,0,5.19,1.442A3.811,3.811,0,0,0,8023.26,430.408Zm89.82,6.906a8.767,8.767,0,0,0-15.51.442l-64.66.05a8.779,8.779,0,0,1-15.41.243c-0.04-.078-0.09-0.149-0.13-0.232a8.78,8.78,0,0,1,15.41-8.415c0.07,0.127.13,0.243,0.2,0.376l30.59-.039a1.653,1.653,0,0,0,.1.183,8.777,8.777,0,0,0,15.64-7.929,7.405,7.405,0,0,0-.36-0.718,8.793,8.793,0,0,0-11.97-3.315,8.7,8.7,0,0,0-3.54,3.768l-104.66.265q-16.89,0-29.1,3.249l25.94,36.476,124.88,0.215c0.03,0.066.07,0.127,0.1,0.193a8.77,8.77,0,1,0-.23-8.2l-24.84-.011a8.768,8.768,0,0,1-15.41.26c-0.05-.089-0.1-0.177-0.15-0.26a8.765,8.765,0,0,1,0-8.094,8.618,8.618,0,0,1,3.46-3.608,8.8,8.8,0,0,1,11.97,3.315c0.05,0.088.1,0.188,0.15,0.282l42.14-.039a1.775,1.775,0,0,1,.1.193A8.783,8.783,0,0,0,8113.08,437.314Zm-26.71,17.177a3.806,3.806,0,1,1-1.44,5.188A3.815,3.815,0,0,1,8086.37,454.491Zm-13.85-32.5a3.8,3.8,0,1,1-3.08.293,3.675,3.675,0,0,1,.66-0.293A3.789,3.789,0,0,1,8072.52,421.993Zm34.79,22.956a3.806,3.806,0,1,1,1.44-5.187A3.808,3.808,0,0,1,8107.31,444.949Z" transform="translate(-7772.97 -416.812)"/>
  <path id="Forma_1_copia" data-name="Forma 1 copia" class="cls-2" d="M7929.26,550.21a26.8,26.8,0,1,1-31.91-20.444A26.8,26.8,0,0,1,7929.26,550.21Z" transform="translate(-7772.97 -416.812)"/>
</svg>
