<svg xmlns="http://www.w3.org/2000/svg" width="800" height="800" viewBox="0 0 800 800">
  <defs>
    <style>
      .cls-1 {
        fill: #25d366;
        fill-rule: evenodd;
      }
    </style>
  </defs>
  <path id="Forma_3" data-name="Forma 3" class="cls-1" d="M10020,900a378.736,378.736,0,0,1-120.88-20.117,23.776,23.776,0,0,1,15.16-45.071A331.219,331.219,0,0,0,10020,852.447c194.3,0,352.4-159.514,352.4-355.581,0-192.611-158.8-349.313-354-349.313-193.44,0-350.85,156.7-350.85,349.313,0,67.615,18.74,133.062,54.18,189.279l9.24,13.86a23.838,23.838,0,0,1,3.15,19.468L9708.86,811.7l95.19-24.35a23.777,23.777,0,1,1,11.79,46.069l-134.82,34.487a23.777,23.777,0,0,1-28.82-29.314l33.19-121.226-3.39-5.093c-0.11-.161-0.22-0.325-0.32-0.492C9641.33,647.9,9620,573.58,9620,496.866c0-106.36,41.46-206.155,116.75-281C9811.9,141.147,9911.93,100,10018.4,100c106.8,0,207.4,40.9,283.2,115.155C10377.9,290,10420,390.047,10420,496.863c0,107-41.9,208.087-118,284.628C10226,857.913,10125.9,900,10020,900Zm110.9-147.208h0c-21.1,0-43.1-4.27-65.4-12.689-87.71-33.051-144.06-77.917-175.87-109.733s-76.68-88.161-109.75-175.925c-18.36-48.5-16.68-95.02,5.01-138.234,0.08-.161.16-0.323,0.24-0.483a127.171,127.171,0,0,1,76.42-62.3l23.43-7.11a39.472,39.472,0,0,1,12.26-1.923,41.1,41.1,0,0,1,35.06,19.3c0.14,0.218.26,0.44,0.39,0.664l59.34,104.875a40.619,40.619,0,0,1-7.99,50.811l-45.35,41.965c8.13,17.716,22.73,47.033,45.88,70.331,0.18,0.179.37,0.357,0.54,0.543l2,2c0.19,0.178.37,0.36,0.55,0.547,22.64,22.451,53.34,37.963,70.34,45.865l42-45.333a40.34,40.34,0,0,1,50.8-7.995l104.8,59.341a3.833,3.833,0,0,1,.7.39c15.7,9.552,23.1,29.816,17.4,47.32l-7.1,23.43a127.509,127.509,0,0,1-62.3,76.422,2.631,2.631,0,0,0-.5.247C10180.4,746.844,10155.9,752.792,10130.9,752.792ZM9827.27,337.786c-15.57,31.2-16.52,63.87-2.9,99.861,31.67,84.067,75.55,135.761,98.89,159.1s75.03,67.214,159.04,98.872c16.9,6.389,33.2,9.622,48.6,9.622h0c17.7,0,34.5-4.089,51.3-12.506a79.078,79.078,0,0,0,38.7-47.644,0.393,0.393,0,0,0,.1-0.311l5.8-19.14-95.2-53.875-44.7,48.27a14.064,14.064,0,0,1-2.1,2.006,37.628,37.628,0,0,1-24.3,9,37.206,37.206,0,0,1-14.6-3c-0.1-.055-0.2-0.112-0.3-0.169-16.3-7.315-59.5-26.751-91.94-59.192-0.12-.122-0.24-0.242-0.35-0.365l-0.72-.708c-0.06-.067-0.13-0.136-0.2-0.2l-0.71-.714c-0.12-.117-0.24-0.237-0.36-0.356-32.47-32.472-50.24-71.983-58.78-90.972l-0.41-.925c-0.06-.128-0.11-0.255-0.17-0.383a37.234,37.234,0,0,1,6.01-38.9,23.15,23.15,0,0,1,2-2.1l48.27-44.672-53.87-95.215-19.14,5.807c-0.11.032-.21,0.063-0.32,0.093A79.351,79.351,0,0,0,9827.27,337.786Z" transform="translate(-9620 -100)"/>
</svg>
